<svg xmlns="http://www.w3.org/2000/svg" xmlns:xlink="http://www.w3.org/1999/xlink" contentStyleType="text/css" height="758px" preserveAspectRatio="none" style="width:415px;height:758px;background:#FFFFFF;" version="1.1" viewBox="0 0 415 758" width="415px" zoomAndPan="magnify"><defs/><g><!--cluster cosmic_ray_detector--><g id="cluster_cosmic_ray_detector"><rect fill="none" height="488.07" rx="2.5" ry="2.5" style="stroke:#181818;stroke-width:1.0;" width="388" x="7" y="125.6"/><rect fill="none" height="10" style="stroke:#181818;stroke-width:1.0;" width="15" x="375" y="130.6"/><rect fill="none" height="2" style="stroke:#181818;stroke-width:1.0;" width="4" x="373" y="132.6"/><rect fill="none" height="2" style="stroke:#181818;stroke-width:1.0;" width="4" x="373" y="136.6"/><text fill="#000000" font-family="sans-serif" font-size="14" font-weight="bold" lengthAdjust="spacing" textLength="163.8301" x="119.085" y="151.5951">Cosmic Ray Detector</text></g><!--entity gm_tubes--><g id="elem_gm_tubes"><rect fill="#F1F1F1" height="55.5938" rx="2.5" ry="2.5" style="stroke:#181818;stroke-width:0.5;" width="107.875" x="23.06" y="160.6"/><polygon fill="#F1F1F1" points="113.935,165.6,113.935,179.6,125.935,179.6,125.935,171.6,119.935,165.6,113.935,165.6" style="stroke:#181818;stroke-width:0.5;"/><line style="stroke:#181818;stroke-width:0.5;" x1="119.935" x2="119.935" y1="165.6" y2="171.6"/><line style="stroke:#181818;stroke-width:0.5;" x1="125.935" x2="119.935" y1="171.6" y2="171.6"/><text fill="#000000" font-family="sans-serif" font-size="14" lengthAdjust="spacing" textLength="77.875" x="33.06" y="186.5951">4x4 Grid of</text><text fill="#000000" font-family="sans-serif" font-size="14" lengthAdjust="spacing" textLength="69.5967" x="33.06" y="202.892">GM Tubes</text></g><!--entity polarization_voltage--><g id="elem_polarization_voltage"><rect fill="#F1F1F1" height="55.5938" rx="2.5" ry="2.5" style="stroke:#181818;stroke-width:0.5;" width="136.4219" x="224.79" y="160.6"/><polygon fill="#F1F1F1" points="344.2119,165.6,344.2119,179.6,356.2119,179.6,356.2119,171.6,350.2119,165.6,344.2119,165.6" style="stroke:#181818;stroke-width:0.5;"/><line style="stroke:#181818;stroke-width:0.5;" x1="350.2119" x2="350.2119" y1="165.6" y2="171.6"/><line style="stroke:#181818;stroke-width:0.5;" x1="356.2119" x2="350.2119" y1="171.6" y2="171.6"/><text fill="#000000" font-family="sans-serif" font-size="14" lengthAdjust="spacing" textLength="106.4219" x="234.79" y="186.5951">HV Polarization</text><text fill="#000000" font-family="sans-serif" font-size="14" lengthAdjust="spacing" textLength="72.2285" x="234.79" y="202.892">(400V DC)</text></g><!--entity adc_converters--><g id="elem_adc_converters"><rect fill="#F1F1F1" height="55.5938" rx="2.5" ry="2.5" style="stroke:#181818;stroke-width:0.5;" width="136.5449" x="27.73" y="293.19"/><polygon fill="#F1F1F1" points="147.2749,298.19,147.2749,312.19,159.2749,312.19,159.2749,304.19,153.2749,298.19,147.2749,298.19" style="stroke:#181818;stroke-width:0.5;"/><line style="stroke:#181818;stroke-width:0.5;" x1="153.2749" x2="153.2749" y1="298.19" y2="304.19"/><line style="stroke:#181818;stroke-width:0.5;" x1="159.2749" x2="153.2749" y1="304.19" y2="304.19"/><text fill="#000000" font-family="sans-serif" font-size="14" lengthAdjust="spacing" textLength="77.875" x="37.73" y="319.1851">4x4 Grid of</text><text fill="#000000" font-family="sans-serif" font-size="14" lengthAdjust="spacing" textLength="106.5449" x="37.73" y="335.482">A/D Converters</text></g><!--entity gm_data_processing--><g id="elem_gm_data_processing"><rect fill="#F1F1F1" height="55.5938" rx="2.5" ry="2.5" style="stroke:#181818;stroke-width:0.5;" width="156.1504" x="22.92" y="425.78"/><polygon fill="#F1F1F1" points="162.0704,430.78,162.0704,444.78,174.0704,444.78,174.0704,436.78,168.0704,430.78,162.0704,430.78" style="stroke:#181818;stroke-width:0.5;"/><line style="stroke:#181818;stroke-width:0.5;" x1="168.0704" x2="168.0704" y1="430.78" y2="436.78"/><line style="stroke:#181818;stroke-width:0.5;" x1="174.0704" x2="168.0704" y1="436.78" y2="436.78"/><text fill="#000000" font-family="sans-serif" font-size="14" lengthAdjust="spacing" textLength="113.1895" x="32.92" y="451.7751">Data Processing</text><text fill="#000000" font-family="sans-serif" font-size="14" lengthAdjust="spacing" textLength="126.1504" x="32.92" y="468.072">(FPGA Cyclone IV)</text></g><!--entity user_interface--><g id="elem_user_interface"><rect fill="#F1F1F1" height="39.2969" rx="2.5" ry="2.5" style="stroke:#181818;stroke-width:0.5;" width="129.0391" x="36.48" y="558.38"/><polygon fill="#F1F1F1" points="148.5191,563.38,148.5191,577.38,160.5191,577.38,160.5191,569.38,154.5191,563.38,148.5191,563.38" style="stroke:#181818;stroke-width:0.5;"/><line style="stroke:#181818;stroke-width:0.5;" x1="154.5191" x2="154.5191" y1="563.38" y2="569.38"/><line style="stroke:#181818;stroke-width:0.5;" x1="160.5191" x2="154.5191" y1="569.38" y2="569.38"/><text fill="#000000" font-family="sans-serif" font-size="14" lengthAdjust="spacing" textLength="99.0391" x="46.48" y="584.3751">User Interface</text></g><!--entity cosmic_ray_particle--><g id="elem_cosmic_ray_particle"><rect fill="#F1F1F1" height="55.5938" rx="2.5" ry="2.5" style="stroke:#181818;stroke-width:0.5;" width="111.9014" x="21.05" y="7"/><polygon fill="#F1F1F1" points="115.9514,12,115.9514,26,127.9514,26,127.9514,18,121.9514,12,115.9514,12" style="stroke:#181818;stroke-width:0.5;"/><line style="stroke:#181818;stroke-width:0.5;" x1="121.9514" x2="121.9514" y1="12" y2="18"/><line style="stroke:#181818;stroke-width:0.5;" x1="127.9514" x2="121.9514" y1="18" y2="18"/><text fill="#000000" font-family="sans-serif" font-size="14" lengthAdjust="spacing" textLength="81.9014" x="31.05" y="32.9951">Cosmic Ray</text><text fill="#000000" font-family="sans-serif" font-size="14" lengthAdjust="spacing" textLength="52.3564" x="31.05" y="49.292">Particle</text></g><!--entity user--><g id="elem_user"><ellipse cx="100.9951" cy="685.17" fill="#F1F1F1" rx="8" ry="8" style="stroke:#181818;stroke-width:0.5;"/><path d="M100.9951,693.17 L100.9951,720.17 M87.9951,701.17 L113.9951,701.17 M100.9951,720.17 L87.9951,735.17 M100.9951,720.17 L113.9951,735.17 " fill="none" style="stroke:#181818;stroke-width:0.5;"/><text fill="#000000" font-family="sans-serif" font-size="14" lengthAdjust="spacing" textLength="31.9102" x="85.04" y="749.6651">User</text></g><!--link cosmic_ray_particle to gm_tubes--><g id="link_cosmic_ray_particle_gm_tubes"><path d="M77,62.9 C77,90.41 77,126.75 77,154.27 " fill="none" id="cosmic_ray_particle-to-gm_tubes" style="stroke:#181818;stroke-width:1.0;"/><polygon fill="#181818" points="77,160.27,81,151.27,77,155.27,73,151.27,77,160.27" style="stroke:#181818;stroke-width:1.0;"/><text fill="#000000" font-family="sans-serif" font-size="13" lengthAdjust="spacing" textLength="79.6758" x="78" y="105.6669">Detected by</text></g><!--reverse link gm_tubes to polarization_voltage--><g id="link_gm_tubes_polarization_voltage"><path d="M137.23,188.39 C165.47,188.39 194.3,188.39 224.4,188.39 " fill="none" id="gm_tubes-backto-polarization_voltage" style="stroke:#181818;stroke-width:1.0;"/><polygon fill="#181818" points="131.23,188.39,140.23,192.39,136.23,188.39,140.23,184.39,131.23,188.39" style="stroke:#181818;stroke-width:1.0;"/><text fill="#000000" font-family="sans-serif" font-size="13" lengthAdjust="spacing" textLength="57.9224" x="149.36" y="181.4569">Polarizes</text></g><!--link gm_tubes to adc_converters--><g id="link_gm_tubes_adc_converters"><path d="M80.94,216.45 C84.2,238.86 87.9459,264.6226 91.2059,287.0226 " fill="none" id="gm_tubes-to-adc_converters" style="stroke:#181818;stroke-width:1.0;"/><polygon fill="#181818" points="92.07,292.96,94.7321,283.4778,91.3499,288.0121,86.8155,284.6299,92.07,292.96" style="stroke:#181818;stroke-width:1.0;"/><text fill="#000000" font-family="sans-serif" font-size="13" lengthAdjust="spacing" textLength="319.2173" x="88" y="259.2569">Pulse of current when radiation particle detected</text></g><!--link adc_converters to gm_data_processing--><g id="link_adc_converters_gm_data_processing"><path d="M97.04,349.04 C97.89,371.46 98.8798,397.1544 99.7398,419.5544 " fill="none" id="adc_converters-to-gm_data_processing" style="stroke:#181818;stroke-width:1.0;"/><polygon fill="#181818" points="99.97,425.55,103.6218,416.4032,99.7782,420.5537,95.6277,416.7101,99.97,425.55" style="stroke:#181818;stroke-width:1.0;"/><text fill="#000000" font-family="sans-serif" font-size="13" lengthAdjust="spacing" textLength="106.6343" x="99" y="391.8469">Analog to digital</text></g><!--link gm_data_processing to user_interface--><g id="link_gm_data_processing_user_interface"><path d="M101,481.75 C101,504.86 101,531.46 101,551.91 " fill="none" id="gm_data_processing-to-user_interface" style="stroke:#181818;stroke-width:1.0;"/><polygon fill="#181818" points="101,557.91,105,548.91,101,552.91,97,548.91,101,557.91" style="stroke:#181818;stroke-width:1.0;"/><text fill="#000000" font-family="sans-serif" font-size="13" lengthAdjust="spacing" textLength="99.4932" x="102" y="524.4469">Processed data</text></g><!--reverse link user_interface to user--><g id="link_user_interface_user"><path d="M101,604.05 C101,624.3 101,650.86 101,676.3 " fill="none" id="user_interface-backto-user" style="stroke:#181818;stroke-width:1.0;"/><polygon fill="#181818" points="101,598.05,97,607.05,101,603.05,105,607.05,101,598.05" style="stroke:#181818;stroke-width:1.0;"/><text fill="#000000" font-family="sans-serif" font-size="13" lengthAdjust="spacing" textLength="89.21" x="102" y="642.7369">Interacts with</text></g><!--SRC=[VLCzZnen4EtzAqRRNAv0kOBgYaW8548H2KKNAgJLO0-B9MElR2-4HFVVR-pz0FPGA80Ttfjvyzxm10lQQqiG3mJIXQEMuF42DVgefI58dtkKKVHVe9Yti5zusTfrXoi0GySlcL_sV26URYTSgLoD9AFpYOXCFTREaermrl409_JQDG6qZUGjca5645TayQ3RM8Vgf_mJmA_h4jC_KrXwhS3jjtRv4zwQ7ONChevbJ0yZmeyDh9rXNNynQcUtzilqvMK3Y_bpPjKtlvKdPo9MzB-HiwyBTiEUoFE6xM1KifH3QKHUO4HOUoSf16qh7lzzlPp1_28Dkm6hpNClNZ6oh0VagC_lG1vMoLP-RcDhk5JglYJURp9ZEPRzuvrOdbNWoUGDmq7N0NOKpqIskvqkbfJGfpE0YN9dE_asc0kll5BEXXJiBeLuv1zC3EtZYDM5m669eTntltSmeniJY0q7sNYVp-l0WZqgdITTxrnrOWenQdAZVEHiwZ_ZutGLH0TALpgYoQh6mBx7lTDPNmjY4nAdIDRdX388i_FjFo9vV9-Tm7pOET4XHv7UODBK3wUjkguXzom-0000]--></g></svg>